<svg xmlns="http://www.w3.org/2000/svg" xmlns:xlink="http://www.w3.org/1999/xlink" width="500" zoomAndPan="magnify" viewBox="0 0 375 374.999991" height="500" preserveAspectRatio="xMidYMid meet" version="1.0"><defs><g/><clipPath id="aa55e22c87"><path d="M 201 138.460938 L 268 138.460938 L 268 213.460938 L 201 213.460938 Z M 201 138.460938 " clip-rule="nonzero"/></clipPath><clipPath id="8ffcf17e59"><path d="M 233 138.460938 L 300 138.460938 L 300 213.460938 L 233 213.460938 Z M 233 138.460938 " clip-rule="nonzero"/></clipPath></defs><g fill="#000000" fill-opacity="1"><g transform="translate(28.033925, 238.925837)"><g><path d="M 10.40625 -7.171875 L 25.625 -7.171875 L 25.625 0 L 2.453125 0 L 2.453125 -37.078125 L 10.40625 -37.078125 Z M 10.40625 -7.171875 "/></g></g></g><g fill="#000000" fill-opacity="1"><g transform="translate(54.178384, 238.925837)"><g><path d="M 15.953125 -37.078125 L 15.953125 -30.390625 L 13.171875 -30.390625 L 13.171875 -6.640625 L 15.953125 -6.640625 L 15.953125 0 L 2.453125 0 L 2.453125 -6.640625 L 5.234375 -6.640625 L 5.234375 -30.390625 L 2.453125 -30.390625 L 2.453125 -37.078125 Z M 15.953125 -37.078125 "/></g></g></g><g fill="#000000" fill-opacity="1"><g transform="translate(72.531793, 238.925837)"><g><path d="M 27.828125 -37.078125 L 35.71875 -37.078125 L 35.71875 0 L 28.1875 0 L 10.359375 -24.21875 L 10.359375 0 L 2.453125 0 L 2.453125 -37.078125 L 9.890625 -37.078125 L 27.828125 -12.703125 Z M 27.828125 -37.078125 "/></g></g></g><g fill="#000000" fill-opacity="1"><g transform="translate(110.702709, 238.925837)"><g><path d="M 18.625 -20.140625 L 36.5 0 L 26.71875 0 L 13.59375 -15.109375 L 10.40625 -11.875 L 10.40625 0 L 2.453125 0 L 2.453125 -37.078125 L 10.40625 -37.078125 L 10.40625 -22.0625 L 25.3125 -37.078125 L 35.453125 -37.078125 Z M 18.625 -20.140625 "/></g></g></g><g fill="#000000" fill-opacity="1"><g transform="translate(147.932423, 238.925837)"><g><path d="M 2.515625 -37.078125 L 25.671875 -37.078125 L 25.671875 -29.859375 L 10.453125 -29.859375 L 10.453125 -23.171875 L 23.84375 -23.171875 L 23.84375 -15.953125 L 10.453125 -15.953125 L 10.453125 -7.171875 L 25.671875 -7.171875 L 25.671875 0 L 2.515625 0 Z M 2.515625 -37.078125 "/></g></g></g><g fill="#000000" fill-opacity="1"><g transform="translate(176.116153, 238.925837)"><g><path d="M 17.46875 -37.078125 C 20.15625 -37.078125 22.523438 -36.585938 24.578125 -35.609375 C 26.640625 -34.640625 28.359375 -33.316406 29.734375 -31.640625 C 31.109375 -29.960938 32.148438 -27.988281 32.859375 -25.71875 C 33.578125 -23.457031 33.9375 -21.054688 33.9375 -18.515625 C 33.9375 -15.929688 33.5625 -13.515625 32.8125 -11.265625 C 32.0625 -9.015625 31.023438 -7.050781 29.703125 -5.375 C 28.378906 -3.707031 26.8125 -2.394531 25 -1.4375 C 23.1875 -0.476562 21.21875 0 19.09375 0 L 2.515625 0 L 2.515625 -37.078125 Z M 17.515625 -7.171875 C 19.015625 -7.171875 20.296875 -7.472656 21.359375 -8.078125 C 22.421875 -8.691406 23.300781 -9.519531 24 -10.5625 C 24.695312 -11.613281 25.210938 -12.816406 25.546875 -14.171875 C 25.878906 -15.535156 26.046875 -16.960938 26.046875 -18.453125 C 26.046875 -19.953125 25.890625 -21.390625 25.578125 -22.765625 C 25.265625 -24.148438 24.757812 -25.363281 24.0625 -26.40625 C 23.363281 -27.457031 22.472656 -28.296875 21.390625 -28.921875 C 20.304688 -29.546875 19.015625 -29.859375 17.515625 -29.859375 L 10.453125 -29.859375 L 10.453125 -7.171875 Z M 17.515625 -7.171875 "/></g></g></g><g fill="#e1f340" fill-opacity="1"><g transform="translate(215.296747, 235.904745)"><g><path d="M 11.796875 -9.265625 C 12.460938 -8.804688 12.992188 -8.210938 13.390625 -7.484375 C 13.796875 -6.753906 14 -5.945312 14 -5.0625 C 14 -4.363281 13.863281 -3.703125 13.59375 -3.078125 C 13.320312 -2.460938 12.953125 -1.925781 12.484375 -1.46875 C 12.023438 -1.019531 11.484375 -0.660156 10.859375 -0.390625 C 10.242188 -0.128906 9.585938 0 8.890625 0 L 1.15625 0 L 1.15625 -17.03125 L 8.640625 -17.03125 C 9.285156 -17.03125 9.882812 -16.90625 10.4375 -16.65625 C 11 -16.40625 11.492188 -16.070312 11.921875 -15.65625 C 12.347656 -15.238281 12.679688 -14.75 12.921875 -14.1875 C 13.160156 -13.632812 13.28125 -13.035156 13.28125 -12.390625 C 13.28125 -11.703125 13.144531 -11.097656 12.875 -10.578125 C 12.613281 -10.054688 12.253906 -9.617188 11.796875 -9.265625 Z M 4.796875 -10.640625 L 8.640625 -10.640625 C 9.078125 -10.640625 9.445312 -10.789062 9.75 -11.09375 C 10.050781 -11.394531 10.203125 -11.765625 10.203125 -12.203125 C 10.203125 -12.628906 10.050781 -12.988281 9.75 -13.28125 C 9.445312 -13.570312 9.078125 -13.71875 8.640625 -13.71875 L 4.796875 -13.71875 Z M 8.890625 -3.296875 C 9.367188 -3.296875 9.773438 -3.5 10.109375 -3.90625 C 10.441406 -4.3125 10.609375 -4.785156 10.609375 -5.328125 C 10.609375 -5.890625 10.441406 -6.363281 10.109375 -6.75 C 9.773438 -7.132812 9.367188 -7.328125 8.890625 -7.328125 L 4.796875 -7.328125 L 4.796875 -3.296875 Z M 8.890625 -3.296875 "/></g></g></g><g fill="#e1f340" fill-opacity="1"><g transform="translate(230.156941, 235.904745)"><g><path d="M 13.375 -11.953125 C 13.375 -11.410156 13.296875 -10.894531 13.140625 -10.40625 C 12.992188 -9.914062 12.785156 -9.46875 12.515625 -9.0625 C 12.242188 -8.65625 11.914062 -8.296875 11.53125 -7.984375 C 11.144531 -7.671875 10.726562 -7.421875 10.28125 -7.234375 L 15.921875 0 L 11.671875 0 L 6.40625 -6.875 L 4.78125 -6.875 L 4.78125 0 L 1.125 0 L 1.125 -17.03125 L 8.484375 -17.03125 C 9.148438 -17.03125 9.78125 -16.894531 10.375 -16.625 C 10.976562 -16.363281 11.5 -16.003906 11.9375 -15.546875 C 12.382812 -15.085938 12.734375 -14.550781 12.984375 -13.9375 C 13.242188 -13.320312 13.375 -12.660156 13.375 -11.953125 Z M 8.015625 -10.1875 C 8.484375 -10.1875 8.882812 -10.359375 9.21875 -10.703125 C 9.550781 -11.046875 9.71875 -11.460938 9.71875 -11.953125 C 9.71875 -12.441406 9.550781 -12.859375 9.21875 -13.203125 C 8.882812 -13.546875 8.484375 -13.71875 8.015625 -13.71875 L 4.78125 -13.71875 L 4.78125 -10.1875 Z M 8.015625 -10.1875 "/></g></g></g><g fill="#e1f340" fill-opacity="1"><g transform="translate(246.649597, 235.904745)"><g><path d="M 7.328125 -17.03125 L 7.328125 -13.953125 L 6.046875 -13.953125 L 6.046875 -3.046875 L 7.328125 -3.046875 L 7.328125 0 L 1.125 0 L 1.125 -3.046875 L 2.40625 -3.046875 L 2.40625 -13.953125 L 1.125 -13.953125 L 1.125 -17.03125 Z M 7.328125 -17.03125 "/></g></g></g><g fill="#e1f340" fill-opacity="1"><g transform="translate(255.075971, 235.904745)"><g><path d="M 9.15625 -3.3125 C 9.914062 -3.3125 10.664062 -3.488281 11.40625 -3.84375 C 12.144531 -4.195312 12.890625 -4.789062 13.640625 -5.625 L 16 -3.390625 C 15.050781 -2.171875 13.972656 -1.25 12.765625 -0.625 C 11.554688 0 10.3125 0.3125 9.03125 0.3125 C 7.875 0.3125 6.789062 0.078125 5.78125 -0.390625 C 4.78125 -0.867188 3.90625 -1.503906 3.15625 -2.296875 C 2.414062 -3.097656 1.832031 -4.03125 1.40625 -5.09375 C 0.976562 -6.164062 0.765625 -7.300781 0.765625 -8.5 C 0.765625 -9.695312 0.984375 -10.820312 1.421875 -11.875 C 1.867188 -12.9375 2.46875 -13.867188 3.21875 -14.671875 C 3.96875 -15.472656 4.851562 -16.101562 5.875 -16.5625 C 6.90625 -17.03125 8 -17.265625 9.15625 -17.265625 C 10.226562 -17.265625 11.25 -17.0625 12.21875 -16.65625 C 13.1875 -16.257812 14.132812 -15.597656 15.0625 -14.671875 L 12.9375 -12.109375 C 12.269531 -12.734375 11.632812 -13.148438 11.03125 -13.359375 C 10.4375 -13.578125 9.8125 -13.6875 9.15625 -13.6875 C 8.5 -13.6875 7.875 -13.550781 7.28125 -13.28125 C 6.695312 -13.007812 6.1875 -12.640625 5.75 -12.171875 C 5.320312 -11.710938 4.984375 -11.164062 4.734375 -10.53125 C 4.492188 -9.894531 4.375 -9.21875 4.375 -8.5 C 4.375 -7.78125 4.492188 -7.109375 4.734375 -6.484375 C 4.984375 -5.859375 5.320312 -5.304688 5.75 -4.828125 C 6.1875 -4.359375 6.695312 -3.988281 7.28125 -3.71875 C 7.875 -3.445312 8.5 -3.3125 9.15625 -3.3125 Z M 9.15625 -3.3125 "/></g></g></g><g fill="#e1f340" fill-opacity="1"><g transform="translate(271.760684, 235.904745)"><g><path d="M 8.546875 -9.25 L 16.765625 0 L 12.265625 0 L 6.25 -6.9375 L 4.78125 -5.453125 L 4.78125 0 L 1.125 0 L 1.125 -17.03125 L 4.78125 -17.03125 L 4.78125 -10.140625 L 11.625 -17.03125 L 16.28125 -17.03125 Z M 8.546875 -9.25 "/></g></g></g><g fill="#e1f340" fill-opacity="1"><g transform="translate(288.853509, 235.904745)"><g><path d="M 11.953125 -8.765625 C 12.628906 -8.367188 13.144531 -7.859375 13.5 -7.234375 C 13.851562 -6.609375 14.03125 -5.882812 14.03125 -5.0625 C 14.03125 -4.300781 13.84375 -3.585938 13.46875 -2.921875 C 13.101562 -2.253906 12.582031 -1.664062 11.90625 -1.15625 C 11.300781 -0.6875 10.609375 -0.328125 9.828125 -0.078125 C 9.054688 0.160156 8.238281 0.289062 7.375 0.3125 C 6.507812 0.3125 5.679688 0.191406 4.890625 -0.046875 C 4.109375 -0.285156 3.414062 -0.644531 2.8125 -1.125 C 1.894531 -1.8125 1.269531 -2.644531 0.9375 -3.625 L 4.296875 -5.1875 C 4.296875 -5.03125 4.351562 -4.832031 4.46875 -4.59375 C 4.582031 -4.351562 4.757812 -4.117188 5 -3.890625 C 5.238281 -3.660156 5.550781 -3.46875 5.9375 -3.3125 C 6.320312 -3.15625 6.789062 -3.078125 7.34375 -3.078125 C 7.789062 -3.078125 8.1875 -3.128906 8.53125 -3.234375 C 8.875 -3.347656 9.160156 -3.488281 9.390625 -3.65625 C 9.628906 -3.832031 9.804688 -4.023438 9.921875 -4.234375 C 10.046875 -4.453125 10.109375 -4.675781 10.109375 -4.90625 C 10.109375 -5.15625 10.023438 -5.390625 9.859375 -5.609375 C 9.691406 -5.835938 9.429688 -6.015625 9.078125 -6.140625 C 8.441406 -6.367188 7.765625 -6.554688 7.046875 -6.703125 C 6.335938 -6.859375 5.644531 -7.050781 4.96875 -7.28125 C 4.300781 -7.519531 3.675781 -7.832031 3.09375 -8.21875 C 2.519531 -8.601562 2.066406 -9.140625 1.734375 -9.828125 C 1.421875 -10.429688 1.265625 -11.078125 1.265625 -11.765625 C 1.265625 -12.535156 1.445312 -13.28125 1.8125 -14 C 2.175781 -14.71875 2.671875 -15.328125 3.296875 -15.828125 C 3.878906 -16.285156 4.539062 -16.640625 5.28125 -16.890625 C 6.019531 -17.140625 6.796875 -17.265625 7.609375 -17.265625 C 8.429688 -17.265625 9.210938 -17.144531 9.953125 -16.90625 C 10.703125 -16.664062 11.367188 -16.3125 11.953125 -15.84375 C 12.535156 -15.414062 12.992188 -14.914062 13.328125 -14.34375 L 10.59375 -12.46875 C 10.257812 -12.925781 9.835938 -13.296875 9.328125 -13.578125 C 8.828125 -13.859375 8.265625 -14 7.640625 -14 C 6.773438 -14 6.101562 -13.804688 5.625 -13.421875 C 5.15625 -13.035156 4.921875 -12.53125 4.921875 -11.90625 C 4.921875 -11.625 5.050781 -11.367188 5.3125 -11.140625 C 5.582031 -10.921875 5.925781 -10.722656 6.34375 -10.546875 C 6.769531 -10.367188 7.25 -10.210938 7.78125 -10.078125 C 8.3125 -9.941406 8.835938 -9.804688 9.359375 -9.671875 C 9.878906 -9.535156 10.367188 -9.394531 10.828125 -9.25 C 11.296875 -9.101562 11.671875 -8.941406 11.953125 -8.765625 Z M 11.953125 -8.765625 "/></g></g></g><g clip-path="url(#aa55e22c87)"><path fill="#ffde59" d="M 242.332031 209.714844 L 264.789062 183.089844 C 265.199219 182.59375 265.5625 182.070312 265.878906 181.511719 C 266.199219 180.957031 266.464844 180.378906 266.683594 179.773438 C 266.898438 179.171875 267.0625 178.554688 267.175781 177.921875 C 267.285156 177.292969 267.339844 176.65625 267.339844 176.015625 C 267.339844 175.375 267.285156 174.738281 267.175781 174.105469 C 267.0625 173.472656 266.898438 172.855469 266.683594 172.253906 C 266.464844 171.652344 266.199219 171.070312 265.878906 170.515625 C 265.5625 169.957031 265.199219 169.433594 264.789062 168.941406 L 258.210938 161.136719 C 257.964844 160.84375 257.671875 160.609375 257.332031 160.4375 C 256.992188 160.261719 256.632812 160.15625 256.253906 160.125 C 255.871094 160.089844 255.5 160.132812 255.136719 160.25 C 254.769531 160.363281 254.441406 160.546875 254.152344 160.792969 C 253.859375 161.039062 253.625 161.332031 253.449219 161.667969 C 253.273438 162.007812 253.167969 162.367188 253.136719 162.75 C 253.105469 163.128906 253.144531 163.503906 253.261719 163.867188 C 253.378906 164.230469 253.558594 164.558594 253.804688 164.851562 L 260.382812 172.652344 C 260.777344 173.125 261.074219 173.652344 261.285156 174.226562 C 261.492188 174.804688 261.597656 175.402344 261.597656 176.015625 C 261.597656 176.628906 261.492188 177.222656 261.285156 177.800781 C 261.074219 178.378906 260.777344 178.902344 260.382812 179.375 L 237.929688 206 C 237.710938 206.265625 237.46875 206.503906 237.199219 206.714844 C 236.925781 206.925781 236.636719 207.105469 236.328125 207.253906 C 236.015625 207.402344 235.695312 207.511719 235.359375 207.585938 C 235.023438 207.664062 234.683594 207.699219 234.339844 207.699219 C 233.996094 207.699219 233.660156 207.664062 233.324219 207.585938 C 232.988281 207.511719 232.667969 207.402344 232.355469 207.253906 C 232.046875 207.105469 231.753906 206.925781 231.484375 206.714844 C 231.214844 206.503906 230.96875 206.265625 230.753906 206 L 208.296875 179.375 C 207.90625 178.902344 207.605469 178.378906 207.398438 177.800781 C 207.191406 177.222656 207.085938 176.628906 207.085938 176.015625 C 207.085938 175.402344 207.191406 174.804688 207.398438 174.226562 C 207.605469 173.652344 207.90625 173.125 208.296875 172.652344 L 230.753906 146.027344 C 230.96875 145.761719 231.214844 145.523438 231.484375 145.3125 C 231.753906 145.101562 232.046875 144.921875 232.355469 144.773438 C 232.667969 144.628906 232.988281 144.515625 233.324219 144.441406 C 233.660156 144.367188 233.996094 144.328125 234.339844 144.328125 C 234.683594 144.328125 235.023438 144.367188 235.359375 144.441406 C 235.695312 144.515625 236.015625 144.628906 236.328125 144.773438 C 236.636719 144.921875 236.925781 145.101562 237.199219 145.3125 C 237.46875 145.523438 237.710938 145.761719 237.929688 146.027344 L 242.769531 151.769531 C 243.019531 152.054688 243.3125 152.28125 243.648438 152.453125 C 243.988281 152.621094 244.34375 152.722656 244.722656 152.75 C 245.101562 152.78125 245.46875 152.738281 245.828125 152.621094 C 246.1875 152.503906 246.515625 152.324219 246.804688 152.082031 C 247.09375 151.835938 247.324219 151.546875 247.5 151.210938 C 247.675781 150.875 247.78125 150.519531 247.816406 150.144531 C 247.847656 149.765625 247.8125 149.398438 247.699219 149.035156 C 247.589844 148.671875 247.414062 148.347656 247.175781 148.054688 L 242.332031 142.3125 C 242.089844 142.023438 241.832031 141.742188 241.558594 141.480469 C 241.285156 141.214844 240.996094 140.96875 240.695312 140.734375 C 240.394531 140.503906 240.082031 140.289062 239.757812 140.089844 C 239.433594 139.890625 239.097656 139.710938 238.753906 139.550781 C 238.410156 139.390625 238.058594 139.246094 237.699219 139.125 C 237.339844 139 236.972656 138.898438 236.601562 138.816406 C 236.230469 138.734375 235.855469 138.671875 235.476562 138.628906 C 235.101562 138.589844 234.722656 138.566406 234.339844 138.566406 C 233.960938 138.566406 233.582031 138.589844 233.203125 138.628906 C 232.828125 138.671875 232.453125 138.734375 232.082031 138.816406 C 231.710938 138.898438 231.34375 139 230.984375 139.125 C 230.625 139.246094 230.273438 139.390625 229.929688 139.550781 C 229.582031 139.710938 229.25 139.890625 228.925781 140.089844 C 228.601562 140.289062 228.289062 140.503906 227.988281 140.734375 C 227.6875 140.96875 227.398438 141.214844 227.125 141.480469 C 226.851562 141.742188 226.59375 142.023438 226.351562 142.3125 L 203.894531 168.941406 C 203.484375 169.433594 203.121094 169.957031 202.804688 170.515625 C 202.484375 171.070312 202.21875 171.652344 202 172.253906 C 201.78125 172.855469 201.617188 173.472656 201.507812 174.105469 C 201.398438 174.738281 201.34375 175.375 201.34375 176.015625 C 201.34375 176.65625 201.398438 177.292969 201.507812 177.921875 C 201.617188 178.554688 201.78125 179.171875 202 179.773438 C 202.21875 180.378906 202.484375 180.957031 202.804688 181.515625 C 203.121094 182.070312 203.484375 182.59375 203.894531 183.089844 L 226.351562 209.714844 C 226.59375 210.007812 226.851562 210.285156 227.125 210.546875 C 227.398438 210.8125 227.6875 211.0625 227.988281 211.292969 C 228.289062 211.523438 228.601562 211.742188 228.925781 211.9375 C 229.25 212.136719 229.585938 212.316406 229.929688 212.476562 C 230.273438 212.640625 230.625 212.78125 230.984375 212.902344 C 231.34375 213.027344 231.710938 213.128906 232.082031 213.210938 C 232.453125 213.292969 232.828125 213.355469 233.203125 213.398438 C 233.582031 213.441406 233.960938 213.460938 234.339844 213.460938 C 234.722656 213.460938 235.101562 213.441406 235.476562 213.398438 C 235.855469 213.355469 236.230469 213.292969 236.601562 213.210938 C 236.972656 213.128906 237.339844 213.027344 237.699219 212.902344 C 238.058594 212.78125 238.410156 212.640625 238.753906 212.476562 C 239.097656 212.316406 239.433594 212.136719 239.757812 211.9375 C 240.082031 211.742188 240.394531 211.523438 240.695312 211.292969 C 240.996094 211.0625 241.285156 210.8125 241.558594 210.546875 C 241.832031 210.285156 242.089844 210.007812 242.332031 209.714844 Z M 242.332031 209.714844 " fill-opacity="1" fill-rule="nonzero"/></g><g clip-path="url(#8ffcf17e59)"><path fill="#ffde59" d="M 258.675781 142.3125 L 236.21875 168.941406 C 235.808594 169.433594 235.445312 169.957031 235.128906 170.515625 C 234.808594 171.070312 234.542969 171.652344 234.324219 172.253906 C 234.109375 172.855469 233.945312 173.472656 233.832031 174.105469 C 233.722656 174.738281 233.667969 175.375 233.667969 176.015625 C 233.667969 176.65625 233.722656 177.292969 233.832031 177.921875 C 233.945312 178.554688 234.109375 179.171875 234.324219 179.773438 C 234.542969 180.378906 234.808594 180.957031 235.128906 181.511719 C 235.445312 182.070312 235.808594 182.59375 236.21875 183.089844 L 242.796875 190.890625 C 243.042969 191.183594 243.335938 191.417969 243.675781 191.59375 C 244.015625 191.769531 244.375 191.871094 244.757812 191.90625 C 245.136719 191.9375 245.507812 191.894531 245.875 191.777344 C 246.238281 191.664062 246.566406 191.480469 246.859375 191.234375 C 247.148438 190.988281 247.382812 190.695312 247.558594 190.355469 C 247.734375 190.019531 247.839844 189.65625 247.871094 189.277344 C 247.902344 188.894531 247.863281 188.523438 247.746094 188.160156 C 247.628906 187.796875 247.449219 187.46875 247.203125 187.175781 L 240.625 179.375 C 240.230469 178.902344 239.933594 178.378906 239.722656 177.800781 C 239.515625 177.222656 239.410156 176.628906 239.410156 176.015625 C 239.410156 175.402344 239.515625 174.804688 239.722656 174.226562 C 239.933594 173.652344 240.230469 173.125 240.625 172.652344 L 263.078125 146.027344 C 263.296875 145.761719 263.539062 145.523438 263.808594 145.3125 C 264.082031 145.101562 264.371094 144.921875 264.679688 144.773438 C 264.992188 144.628906 265.3125 144.515625 265.648438 144.441406 C 265.984375 144.367188 266.324219 144.328125 266.667969 144.328125 C 267.011719 144.328125 267.347656 144.367188 267.683594 144.441406 C 268.019531 144.515625 268.339844 144.628906 268.652344 144.773438 C 268.960938 144.921875 269.253906 145.101562 269.523438 145.3125 C 269.792969 145.523438 270.039062 145.761719 270.253906 146.027344 L 292.710938 172.652344 C 293.101562 173.125 293.402344 173.652344 293.609375 174.226562 C 293.816406 174.804688 293.921875 175.402344 293.921875 176.015625 C 293.921875 176.628906 293.816406 177.222656 293.609375 177.800781 C 293.402344 178.378906 293.101562 178.902344 292.710938 179.375 L 270.253906 206 C 270.039062 206.265625 269.792969 206.503906 269.523438 206.714844 C 269.253906 206.925781 268.960938 207.105469 268.652344 207.253906 C 268.339844 207.402344 268.019531 207.511719 267.683594 207.585938 C 267.347656 207.664062 267.011719 207.699219 266.667969 207.699219 C 266.324219 207.699219 265.984375 207.664062 265.648438 207.585938 C 265.3125 207.511719 264.992188 207.402344 264.679688 207.253906 C 264.371094 207.105469 264.082031 206.925781 263.808594 206.714844 C 263.539062 206.503906 263.296875 206.265625 263.078125 206 L 258.238281 200.261719 C 257.988281 199.976562 257.695312 199.746094 257.359375 199.578125 C 257.019531 199.40625 256.664062 199.304688 256.285156 199.277344 C 255.90625 199.246094 255.539062 199.289062 255.179688 199.40625 C 254.820312 199.523438 254.492188 199.703125 254.203125 199.945312 C 253.914062 200.191406 253.683594 200.480469 253.507812 200.816406 C 253.332031 201.152344 253.226562 201.507812 253.191406 201.882812 C 253.160156 202.261719 253.195312 202.628906 253.308594 202.992188 C 253.417969 203.355469 253.59375 203.683594 253.832031 203.972656 L 258.675781 209.714844 C 258.917969 210.007812 259.175781 210.285156 259.449219 210.546875 C 259.722656 210.8125 260.011719 211.0625 260.3125 211.292969 C 260.613281 211.523438 260.925781 211.742188 261.25 211.9375 C 261.574219 212.136719 261.910156 212.316406 262.253906 212.476562 C 262.597656 212.640625 262.949219 212.78125 263.308594 212.902344 C 263.667969 213.027344 264.035156 213.128906 264.40625 213.210938 C 264.777344 213.292969 265.152344 213.355469 265.53125 213.398438 C 265.90625 213.441406 266.285156 213.460938 266.667969 213.460938 C 267.046875 213.460938 267.425781 213.441406 267.804688 213.398438 C 268.179688 213.355469 268.554688 213.292969 268.925781 213.210938 C 269.296875 213.128906 269.664062 213.027344 270.023438 212.902344 C 270.382812 212.78125 270.734375 212.640625 271.078125 212.476562 C 271.425781 212.316406 271.757812 212.136719 272.082031 211.9375 C 272.40625 211.742188 272.71875 211.523438 273.019531 211.292969 C 273.320312 211.0625 273.609375 210.8125 273.882812 210.546875 C 274.15625 210.285156 274.414062 210.007812 274.65625 209.714844 L 297.113281 183.089844 C 297.523438 182.59375 297.886719 182.070312 298.203125 181.515625 C 298.523438 180.957031 298.789062 180.378906 299.007812 179.773438 C 299.226562 179.171875 299.390625 178.554688 299.5 177.921875 C 299.609375 177.292969 299.664062 176.65625 299.664062 176.015625 C 299.664062 175.375 299.609375 174.738281 299.5 174.105469 C 299.390625 173.472656 299.226562 172.855469 299.007812 172.253906 C 298.789062 171.652344 298.523438 171.070312 298.203125 170.515625 C 297.886719 169.957031 297.523438 169.433594 297.113281 168.941406 L 274.65625 142.3125 C 274.414062 142.023438 274.15625 141.742188 273.882812 141.480469 C 273.609375 141.214844 273.320312 140.96875 273.019531 140.734375 C 272.71875 140.503906 272.40625 140.289062 272.082031 140.089844 C 271.757812 139.890625 271.425781 139.710938 271.078125 139.550781 C 270.734375 139.390625 270.382812 139.246094 270.023438 139.125 C 269.664062 139 269.296875 138.898438 268.925781 138.816406 C 268.554688 138.734375 268.179688 138.671875 267.804688 138.628906 C 267.425781 138.589844 267.046875 138.566406 266.667969 138.566406 C 266.285156 138.566406 265.90625 138.589844 265.53125 138.628906 C 265.152344 138.671875 264.777344 138.734375 264.40625 138.816406 C 264.035156 138.898438 263.667969 139 263.308594 139.125 C 262.949219 139.246094 262.597656 139.390625 262.253906 139.550781 C 261.910156 139.710938 261.574219 139.890625 261.25 140.089844 C 260.925781 140.289062 260.613281 140.503906 260.3125 140.734375 C 260.011719 140.96875 259.722656 141.214844 259.449219 141.480469 C 259.175781 141.742188 258.917969 142.023438 258.675781 142.3125 Z M 258.675781 142.3125 " fill-opacity="1" fill-rule="nonzero"/></g></svg>